<svg xmlns="http://www.w3.org/2000/svg" version="1.1" xmlns:xlink="http://www.w3.org/1999/xlink" xmlns:svgjs="http://svgjs.dev/svgjs" width="2000" height="2024" viewBox="0 0 2000 2024"><g transform="matrix(1,0,0,1,1.76786889273842,0.8194331983804659)"><svg viewBox="0 0 244 247" data-background-color="#ffffff" preserveAspectRatio="xMidYMid meet" height="2024" width="2000" xmlns="http://www.w3.org/2000/svg" xmlns:xlink="http://www.w3.org/1999/xlink"><g id="tight-bounds" transform="matrix(1,0,0,1,-0.21567999508593516,-0.09999999999999432)"><svg viewBox="0 0 244.43135999999998 247.2" height="247.2" width="244.43135999999998"><g><svg></svg></g><g><svg viewBox="0 0 244.43135999999998 247.2" height="247.2" width="244.43135999999998"><g transform="matrix(1,0,0,1,0,85.43078594266441)"><svg viewBox="0 0 244.43135999999998 76.33842811467116" height="76.33842811467116" width="244.43135999999998"><g><svg viewBox="0 0 244.43135999999998 76.33842811467116" height="76.33842811467116" width="244.43135999999998"><g><svg viewBox="0 0 244.43135999999998 76.33842811467116" height="76.33842811467116" width="244.43135999999998"><g><svg viewBox="0 0 244.43135999999998 76.33842811467116" height="76.33842811467116" width="244.43135999999998"><g id="textblocktransform"><svg viewBox="0 0 244.43135999999998 76.33842811467116" height="76.33842811467116" width="244.43135999999998" id="textblock"><g><svg viewBox="0 0 244.43135999999998 76.33842811467116" height="76.33842811467116" width="244.43135999999998"><g transform="matrix(1,0,0,1,0,0)"><svg width="244.43135999999998" viewBox="0.4000000059604645 -36.29999923706055 148.24000549316406 46.29999923706055" height="76.33842811467116" data-palette-color="#332885"><path d="M7.8 0L4.4 0 4.4-20.3 0.4-20.3 0.4-23.4 4.4-23.4 4.4-31.15 7.8-31.15 7.8-23.4 13.2-23.4 13.2-20.3 7.8-20.3 7.8 0ZM35.25-23.4L38.65-23.4 38.65 0 35.25 0 35.25-3.45Q33.8-1.45 31.7-0.33 29.6 0.8 27.1 0.8L27.1 0.8Q23.75 0.8 21.1-0.8 18.45-2.4 16.95-5.25 15.45-8.1 15.45-11.75L15.45-11.75Q15.45-15.35 16.92-18.18 18.4-21 21.02-22.6 23.65-24.2 27-24.2L27-24.2Q29.55-24.2 31.67-23.08 33.8-21.95 35.25-19.9L35.25-19.9 35.25-23.4ZM27-2.3Q29.4-2.3 31.27-3.5 33.15-4.7 34.2-6.85 35.25-9 35.25-11.7L35.25-11.7Q35.25-14.4 34.2-16.55 33.15-18.7 31.27-19.9 29.4-21.1 27-21.1L27-21.1Q24.65-21.1 22.8-19.9 20.95-18.7 19.9-16.57 18.85-14.45 18.85-11.75L18.85-11.75Q18.85-9 19.9-6.85 20.95-4.7 22.8-3.5 24.65-2.3 27-2.3L27-2.3ZM53.59-4L61.05-23.4 64.25-23.4 51.59 10 48.2 10 51.9 0.45 42.3-23.4 45.84-23.4 53.59-4ZM70.09-22.7L67.69-22.7 67.19-34.1 70.59-34.1 70.09-22.7ZM85.34-4L92.79-23.4 95.99-23.4 83.34 10 79.94 10 83.64 0.45 74.04-23.4 77.59-23.4 85.34-4ZM109.24-24.2Q112.39-24.2 114.94-22.65 117.49-21.1 118.94-18.43 120.39-15.75 120.39-12.45L120.39-12.45Q120.39-11.5 120.34-11L120.34-11 101.09-11Q101.29-7.4 103.44-4.85 105.59-2.3 109.29-2.3L109.29-2.3Q112.29-2.3 114.26-3.43 116.24-4.55 117.44-6.55L117.44-6.55 120.14-4.75Q118.49-2.15 115.79-0.68 113.09 0.8 109.39 0.8L109.39 0.8Q105.99 0.8 103.34-0.8 100.69-2.4 99.19-5.25 97.69-8.1 97.69-11.7L97.69-11.7Q97.69-15.3 99.16-18.15 100.64-21 103.26-22.6 105.89-24.2 109.24-24.2L109.24-24.2ZM101.29-13.8L116.99-13.8Q116.49-17.45 114.54-19.28 112.59-21.1 109.24-21.1L109.24-21.1Q105.99-21.1 103.91-19.03 101.84-16.95 101.29-13.8L101.29-13.8ZM137.09-24.2Q140.44-24.2 143.06-22.6 145.69-21 147.16-18.18 148.64-15.35 148.64-11.75L148.64-11.75Q148.64-8.1 147.14-5.25 145.64-2.4 142.99-0.8 140.34 0.8 136.99 0.8L136.99 0.8Q134.49 0.8 132.39-0.33 130.29-1.45 128.84-3.45L128.84-3.45 128.84 0 125.44 0 125.44-36.3 128.84-36.3 128.84-19.9Q130.29-21.95 132.41-23.08 134.54-24.2 137.09-24.2L137.09-24.2ZM137.09-2.3Q139.44-2.3 141.29-3.5 143.14-4.7 144.19-6.85 145.24-9 145.24-11.75L145.24-11.75Q145.24-14.45 144.19-16.57 143.14-18.7 141.29-19.9 139.44-21.1 137.09-21.1L137.09-21.1Q134.69-21.1 132.81-19.9 130.94-18.7 129.89-16.55 128.84-14.4 128.84-11.7L128.84-11.7Q128.84-9 129.89-6.85 130.94-4.7 132.81-3.5 134.69-2.3 137.09-2.3L137.09-2.3Z" opacity="1" transform="matrix(1,0,0,1,0,0)" fill="#000000" class="wordmark-text-0" data-fill-palette-color="primary" id="text-0"></path></svg></g></svg></g></svg></g></svg></g><g></g></svg></g></svg></g></svg></g><path d="M0 79.431L0 1 244.431 1 244.431 79.431 237.547 79.431 237.547 7.884 6.884 7.884 6.884 79.431 0 79.431M0 167.769L0 246.2 244.431 246.2 244.431 167.769 237.547 167.769 237.547 239.316 6.884 239.316 6.884 167.769 0 167.769" fill="#000000" stroke="transparent" data-fill-palette-color="primary"></path></svg></g><defs></defs></svg><rect width="244.43135999999998" height="247.2" fill="none" stroke="none" visibility="hidden"></rect></g></svg></g></svg>